<svg width="1280" height="1280" viewBox="0 0 1280 1280" fill="none" xmlns="http://www.w3.org/2000/svg">
<path d="M1167.55 71.1108C1201.21 71.1108 1228.5 98.4002 1228.5 132.063C1228.5 165.726 1201.21 193.016 1167.55 193.016H433.453C392.138 193.016 355.954 220.723 345.184 260.61L181.434 867.088C151.502 977.947 235.003 1086.98 349.832 1086.98C428.655 1086.98 497.683 1034.12 518.229 958.021L554.073 825.258C431.715 805.823 348.582 683.35 382.158 558.993L433.15 370.144C441.925 337.645 475.383 318.414 507.882 327.187C539.08 335.611 558.044 366.779 551.751 398.011L504.137 574.375C495.948 604.706 513.896 635.936 544.226 644.127C574.557 652.315 605.787 634.367 613.978 604.037L678.294 365.833C688.748 335.968 720.657 318.808 751.692 327.187C782.896 335.612 801.861 366.792 795.556 398.031L747.947 574.38C739.759 604.711 757.706 635.936 788.036 644.127C818.367 652.315 849.597 634.367 857.788 604.037L922.108 365.813C932.569 335.961 964.473 318.811 995.501 327.187C1028 335.962 1047.23 369.42 1038.46 401.919L966.022 670.213C940.892 763.284 856.464 827.936 760.06 827.936H679.623L635.923 989.801C601.016 1119.08 483.742 1208.89 349.832 1208.89C154.751 1208.89 12.8949 1023.65 63.7453 835.312L227.49 228.834C252.62 135.763 337.049 71.1112 433.453 71.1108H1167.55Z" fill="url(#paint0_linear_131_29)"/>
<defs>
<linearGradient id="paint0_linear_131_29" x1="1192.28" y1="71.1109" x2="107.125" y2="1236.49" gradientUnits="userSpaceOnUse">
<stop stop-color="#E4512F"/>
<stop offset="1" stop-color="#D64A3A"/>
</linearGradient>
</defs>
</svg>
