<svg width="1280" height="252" viewBox="0 0 1280 252" fill="none" xmlns="http://www.w3.org/2000/svg">
<path d="M1210.11 230.118C1178.06 230.118 1157.36 207.415 1157.36 172.246C1157.36 136.855 1178.5 112.371 1212.34 112.371C1226.14 112.371 1239.27 117.935 1245.73 126.171V59.3955H1280V227.225H1247.73L1245.95 212.979C1239.94 223.218 1226.14 230.118 1210.11 230.118ZM1218.35 198.734C1234.37 198.734 1245.5 187.605 1245.5 170.911C1245.5 154.217 1234.37 143.088 1218.35 143.088C1202.1 143.088 1191.86 154.439 1191.86 170.911C1191.86 187.382 1202.1 198.734 1218.35 198.734Z" fill="#2F2725"/>
<path d="M1025.31 171.356C1025.31 136.188 1051.13 112.594 1086.74 112.594C1122.13 112.594 1147.95 136.188 1147.95 171.356C1147.95 206.525 1122.13 229.896 1086.74 229.896C1051.13 229.896 1025.31 206.525 1025.31 171.356ZM1059.81 171.134C1059.81 188.05 1070.72 199.179 1086.74 199.179C1102.55 199.179 1113.45 188.05 1113.45 171.134C1113.45 154.44 1102.55 143.311 1086.74 143.311C1070.72 143.311 1059.81 154.44 1059.81 171.134Z" fill="#2F2725"/>
<path d="M893.258 171.356C893.258 136.188 919.078 112.594 954.691 112.594C990.082 112.594 1015.9 136.188 1015.9 171.356C1015.9 206.525 990.082 229.896 954.691 229.896C919.078 229.896 893.258 206.525 893.258 171.356ZM927.759 171.134C927.759 188.05 938.665 199.179 954.691 199.179C970.495 199.179 981.402 188.05 981.402 171.134C981.402 154.44 970.495 143.311 954.691 143.311C938.665 143.311 927.759 154.44 927.759 171.134Z" fill="#2F2725"/>
<path d="M880.802 162.898H822.93V227.225H786.871V62.5117H891.709V95.8995H822.93V130.4H880.802V162.898Z" fill="#2F2725"/>
<path d="M683.646 227.225H650.703L677.191 59.3955H710.579L699.672 127.952C709.02 116.823 718.146 112.371 731.502 112.371C756.209 112.371 773.125 133.294 769.119 158.669L758.212 227.225H725.047L734.618 166.682C737.066 151.768 730.166 142.197 717.256 142.197C704.346 142.197 695.665 150.655 693.217 166.459L683.646 227.225Z" fill="#2F2725"/>
<path d="M547.705 192.056H579.312C579.757 200.515 585.545 205.189 595.561 205.189C605.132 205.189 611.587 201.182 611.587 195.172C611.587 190.276 609.361 188.05 602.684 186.046L583.096 179.814C567.738 174.917 558.167 165.569 558.167 150.433C558.167 127.061 575.973 112.816 605.355 112.816C630.062 112.816 647.201 128.174 647.201 149.988H615.594C615.594 142.197 610.474 137.078 602.461 137.078C594.003 137.078 589.551 140.416 589.551 146.649C589.551 151.323 593.112 154.885 600.458 157.333L619.6 163.565C635.626 168.685 643.417 177.811 643.417 191.166C643.417 215.428 624.72 229.673 593.112 229.673C565.512 229.673 547.705 214.983 547.705 192.056Z" fill="#2F2725"/>
<path d="M466.516 230.118C446.261 230.118 432.461 217.654 432.461 199.179C432.461 176.03 448.71 162.23 478.314 159.781L509.475 157.11L509.698 155.107C511.034 143.978 504.579 137.968 492.114 137.968C479.426 137.968 472.304 143.31 470.746 153.994H441.81C445.816 127.506 465.181 112.593 495.675 112.593C528.395 112.593 545.979 131.736 541.083 162.007L530.621 227.225H501.462L501.685 212.311C496.566 222.996 482.32 230.118 466.516 230.118ZM479.872 205.411C493.672 205.411 503.688 197.621 505.469 185.156L506.359 179.146L488.552 180.704C472.081 182.04 466.071 186.714 466.071 195.172C466.071 201.627 470.968 205.411 479.872 205.411Z" fill="#2F2725"/>
<path d="M410.743 227.225H377.578L404.066 59.3955H437.231L410.743 227.225Z" fill="#2F2725"/>
<path d="M360.815 162.675H303.833L293.594 227.225H258.871L284.914 62.5117H387.303L382.183 95.0092H314.517L308.73 131.068H365.712L360.815 162.675Z" fill="#2F2725"/>
<path d="M246.362 0C253.805 0 259.839 6.03389 259.839 13.4771C259.839 20.9203 253.805 26.9542 246.362 26.9542H84.047C74.9119 26.9542 66.9114 33.0806 64.53 41.8998L28.3235 175.997C21.7054 200.509 40.1682 224.618 65.5577 224.618C82.9861 224.618 98.2488 212.929 102.792 196.103L110.717 166.748C83.6628 162.451 65.2813 135.371 72.7053 107.875L83.9801 66.1186C85.9202 58.9329 93.3182 54.6807 100.504 56.6206C107.402 58.4831 111.595 65.3746 110.204 72.2803L99.6759 111.276C97.8653 117.982 101.834 124.888 108.54 126.699C115.246 128.509 122.152 124.541 123.963 117.835L138.183 65.1655C140.495 58.5622 147.55 54.768 154.412 56.6206C161.312 58.4835 165.505 65.3775 164.111 72.2847L153.584 111.277C151.774 117.983 155.742 124.888 162.448 126.699C169.155 128.509 176.06 124.541 177.871 117.835L192.093 65.1612C194.406 58.5605 201.46 54.7685 208.321 56.6206C215.506 58.5608 219.759 65.9587 217.819 73.1445L201.803 132.466C196.246 153.045 177.578 167.34 156.263 167.34H138.477L128.815 203.13C121.097 231.715 95.1665 251.572 65.5577 251.572C22.4237 251.572 -8.94184 210.614 2.3016 168.971L38.507 34.8739C44.0633 14.2952 62.7313 8.46225e-05 84.047 0H246.362Z" fill="url(#paint0_linear_131_16)"/>
<defs>
<linearGradient id="paint0_linear_131_16" x1="251.83" y1="1.04903e-05" x2="11.8933" y2="257.675" gradientUnits="userSpaceOnUse">
<stop stop-color="#E4512F"/>
<stop offset="1" stop-color="#D64A3A"/>
</linearGradient>
</defs>
</svg>
