<svg width="1280" height="318" viewBox="0 0 1280 318" fill="none" xmlns="http://www.w3.org/2000/svg">
<path d="M1213.74 214.439C1183.87 214.439 1164.58 193.282 1164.58 160.51C1164.58 127.53 1184.28 104.714 1215.81 104.714C1228.67 104.714 1240.91 109.9 1246.93 117.574V55.3486H1278.87V211.743H1248.79L1247.13 198.468C1241.53 208.009 1228.67 214.439 1213.74 214.439ZM1221.41 185.193C1236.35 185.193 1246.72 174.822 1246.72 159.266C1246.72 143.709 1236.35 133.338 1221.41 133.338C1206.27 133.338 1196.73 143.917 1196.73 159.266C1196.73 174.615 1206.27 185.193 1221.41 185.193Z" fill="#2F2725"/>
<path d="M1041.53 159.68C1041.53 126.908 1065.59 104.922 1098.78 104.922C1131.76 104.922 1155.82 126.908 1155.82 159.68C1155.82 192.453 1131.76 214.232 1098.78 214.232C1065.59 214.232 1041.53 192.453 1041.53 159.68ZM1073.68 159.473C1073.68 175.237 1083.85 185.608 1098.78 185.608C1113.51 185.608 1123.67 175.237 1123.67 159.473C1123.67 143.917 1113.51 133.546 1098.78 133.546C1083.85 133.546 1073.68 143.917 1073.68 159.473Z" fill="#2F2725"/>
<path d="M918.477 159.68C918.477 126.908 942.537 104.922 975.724 104.922C1008.7 104.922 1032.76 126.908 1032.76 159.68C1032.76 192.453 1008.7 214.232 975.724 214.232C942.537 214.232 918.477 192.453 918.477 159.68ZM950.627 159.473C950.627 175.237 960.79 185.608 975.724 185.608C990.451 185.608 1000.61 175.237 1000.61 159.473C1000.61 143.917 990.451 133.546 975.724 133.546C960.79 133.546 950.627 143.917 950.627 159.473Z" fill="#2F2725"/>
<path d="M906.867 151.798H852.938V211.743H819.336V58.2524H917.03V89.3653H852.938V121.515H906.867V151.798Z" fill="#2F2725"/>
<path d="M723.143 211.743H692.445L717.128 55.3486H748.241L738.078 119.234C746.789 108.863 755.293 104.714 767.738 104.714C790.762 104.714 806.526 124.212 802.792 147.858L792.629 211.743H761.723L770.642 155.325C772.924 141.428 766.494 132.508 754.464 132.508C742.433 132.508 734.344 140.39 732.062 155.117L723.143 211.743Z" fill="#2F2725"/>
<path d="M596.465 178.97H625.918C626.333 186.852 631.726 191.208 641.06 191.208C649.979 191.208 655.994 187.474 655.994 181.874C655.994 177.311 653.92 175.237 647.697 173.37L629.444 167.562C615.133 162.999 606.214 154.287 606.214 140.183C606.214 118.404 622.807 105.129 650.186 105.129C673.21 105.129 689.181 119.441 689.181 139.768H659.728C659.728 132.508 654.957 127.738 647.49 127.738C639.608 127.738 635.46 130.849 635.46 136.657C635.46 141.012 638.778 144.331 645.623 146.613L663.461 152.42C678.395 157.191 685.655 165.695 685.655 178.14C685.655 200.749 668.232 214.024 638.778 214.024C613.058 214.024 596.465 200.334 596.465 178.97Z" fill="#2F2725"/>
<path d="M520.813 214.439C501.938 214.439 489.078 202.824 489.078 185.608C489.078 164.036 504.22 151.176 531.806 148.895L560.845 146.406L561.053 144.539C562.297 134.168 556.282 128.568 544.666 128.568C532.844 128.568 526.206 133.546 524.754 143.502H497.79C501.523 118.819 519.569 104.922 547.985 104.922C578.476 104.922 594.862 122.76 590.299 150.969L580.55 211.743H553.378L553.585 197.846C548.815 207.802 535.54 214.439 520.813 214.439ZM533.258 191.416C546.118 191.416 555.452 184.156 557.112 172.54L557.941 166.94L541.348 168.392C525.999 169.637 520.398 173.992 520.398 181.874C520.398 187.889 524.962 191.416 533.258 191.416Z" fill="#2F2725"/>
<path d="M468.825 211.743H437.92L462.603 55.3486H493.508L468.825 211.743Z" fill="#2F2725"/>
<path d="M422.307 151.591H369.207L359.666 211.743H327.309L351.577 58.2524H446.989L442.219 88.5356H379.163L373.77 122.137H426.87L422.307 151.591Z" fill="#2F2725"/>
<path d="M311.038 0C320.435 0 328.053 7.61794 328.053 17.0151C328.053 26.4123 320.435 34.0303 311.038 34.0303H106.111C94.578 34.0304 84.4772 41.7651 81.4707 52.8995L35.7591 222.201C27.4036 253.148 50.7133 283.585 82.7681 283.586C104.772 283.586 124.041 268.828 129.777 247.585L139.783 210.524C105.626 205.098 82.4193 170.909 91.7922 136.194L106.027 83.4764C108.476 74.4042 117.816 69.0357 126.889 71.4849C135.598 73.8363 140.892 82.537 139.135 91.2556L125.843 140.488C123.557 148.956 128.567 157.674 137.034 159.96C145.501 162.246 154.219 157.236 156.506 148.769L174.46 82.2731C177.378 73.9362 186.286 69.1459 194.949 71.4849C203.66 73.8368 208.954 82.5407 207.194 91.2611L193.904 140.49C191.618 148.957 196.628 157.674 205.095 159.96C213.562 162.246 222.28 157.236 224.566 148.769L242.522 82.2675C245.442 73.9341 254.348 69.1466 263.01 71.4849C272.082 73.9344 277.451 83.2744 275.001 92.3467L254.781 167.242C247.765 193.223 224.197 211.271 197.285 211.271H174.831L162.632 256.457C152.887 292.546 120.15 317.616 82.7681 317.616C28.3104 317.616 -11.2893 265.905 2.90582 213.33L48.616 44.0292C55.631 18.048 79.1998 0.000106838 106.111 0H311.038Z" fill="url(#paint0_linear_131_3)"/>
<path d="M1264.21 309.932C1257.86 309.932 1254.11 306.363 1254.11 300.979C1254.11 295.534 1258.16 292.146 1265.12 291.601L1274.44 290.875V290.028C1274.44 285.068 1271.47 283.313 1267.48 283.313C1262.7 283.313 1259.98 285.431 1259.98 289H1255.02C1255.02 282.829 1260.1 278.776 1267.72 278.776C1275.04 278.776 1280 282.648 1280 290.633V309.206H1275.16L1274.56 304.427C1273.04 307.815 1268.99 309.932 1264.21 309.932ZM1265.84 305.516C1271.23 305.516 1274.5 302.007 1274.5 296.441V294.868L1266.93 295.473C1261.91 295.957 1259.86 297.893 1259.86 300.797C1259.86 303.943 1262.15 305.516 1265.84 305.516Z" fill="#2F2725"/>
<path d="M1248.76 268.128L1243.55 276.174H1239.2L1243.25 268.128H1248.76ZM1238.41 309.206V279.623H1244.1V309.206H1238.41Z" fill="#2F2725"/>
<path d="M1229.87 279.381V284.584H1227.33C1221.95 284.584 1218.62 287.851 1218.62 293.537V309.206H1212.93V279.683H1218.25L1218.62 284.16C1219.83 281.075 1222.79 279.018 1226.85 279.018C1227.87 279.018 1228.72 279.139 1229.87 279.381Z" fill="#2F2725"/>
<path d="M1189.7 309.932C1180.99 309.932 1175 303.641 1175 294.445C1175 285.189 1180.87 278.776 1189.46 278.776C1197.87 278.776 1203.37 284.584 1203.37 293.356V295.473L1180.5 295.534C1180.93 301.765 1184.19 305.214 1189.82 305.214C1194.24 305.214 1197.14 303.399 1198.11 300.011H1203.43C1201.98 306.363 1197.02 309.932 1189.7 309.932ZM1189.46 283.555C1184.5 283.555 1181.35 286.52 1180.63 291.722H1197.69C1197.69 286.822 1194.48 283.555 1189.46 283.555Z" fill="#2F2725"/>
<path d="M1165.36 309.206H1159.67V264.68H1165.36V309.206Z" fill="#2F2725"/>
<path d="M1136.32 309.932C1127.61 309.932 1121.62 303.641 1121.62 294.445C1121.62 285.189 1127.49 278.776 1136.08 278.776C1144.49 278.776 1149.99 284.584 1149.99 293.356V295.473L1127.12 295.534C1127.55 301.765 1130.81 305.214 1136.44 305.214C1140.86 305.214 1143.76 303.399 1144.73 300.011H1150.05C1148.6 306.363 1143.64 309.932 1136.32 309.932ZM1136.08 283.555C1131.12 283.555 1127.97 286.52 1127.24 291.722H1144.3C1144.3 286.822 1141.1 283.555 1136.08 283.555Z" fill="#2F2725"/>
<path d="M1109.73 309.206H1104.04V284.402H1098.24V279.623H1104.04V270.367H1109.73V279.623H1115.54V284.402H1109.73V309.206Z" fill="#2F2725"/>
<path d="M1068.64 300.616H1074.08C1074.08 303.641 1076.38 305.456 1080.13 305.456C1084.13 305.456 1086.42 303.822 1086.42 301.1C1086.42 299.103 1085.46 297.893 1082.37 297.107L1077.17 295.897C1071.9 294.626 1069.42 292.025 1069.42 287.669C1069.42 282.224 1074.02 278.776 1080.56 278.776C1087.03 278.776 1091.26 282.406 1091.39 288.032H1085.94C1085.82 285.068 1083.82 283.192 1080.37 283.192C1076.81 283.192 1074.81 284.765 1074.81 287.488C1074.81 289.484 1076.26 290.815 1079.16 291.541L1084.37 292.811C1089.39 294.021 1091.87 296.32 1091.87 300.737C1091.87 306.363 1087.03 309.932 1080.01 309.932C1073.05 309.932 1068.64 306.242 1068.64 300.616Z" fill="#2F2725"/>
<path d="M1030.76 294.384C1030.76 285.249 1037.3 278.836 1046.19 278.836C1055.02 278.836 1061.56 285.249 1061.56 294.384C1061.56 303.52 1055.02 309.932 1046.19 309.932C1037.3 309.932 1030.76 303.52 1030.76 294.384ZM1036.51 294.384C1036.51 300.555 1040.44 304.851 1046.19 304.851C1051.88 304.851 1055.87 300.555 1055.87 294.384C1055.87 288.214 1051.88 283.918 1046.19 283.918C1040.44 283.918 1036.51 288.214 1036.51 294.384Z" fill="#2F2725"/>
<path d="M1000.38 309.146H994.694V264.68H1000.38V284.16C1002.26 280.954 1005.83 278.776 1010.42 278.776C1017.99 278.776 1021.62 283.555 1021.62 291.117V309.206H1015.93V292.388C1015.93 286.399 1013.09 283.979 1008.85 283.979C1003.35 283.979 1000.38 287.972 1000.38 293.053V309.146Z" fill="#2F2725"/>
<path d="M948.073 309.932C941.721 309.932 937.97 306.363 937.97 300.979C937.97 295.534 942.023 292.146 948.98 291.601L958.297 290.875V290.028C958.297 285.068 955.333 283.313 951.34 283.313C946.561 283.313 943.838 285.431 943.838 289H938.877C938.877 282.829 943.959 278.776 951.582 278.776C958.902 278.776 963.863 282.648 963.863 290.633V309.206H959.023L958.418 304.427C956.906 307.815 952.852 309.932 948.073 309.932ZM949.706 305.516C955.091 305.516 958.358 302.007 958.358 296.441V294.868L950.795 295.473C945.774 295.957 943.717 297.893 943.717 300.797C943.717 303.943 946.016 305.516 949.706 305.516Z" fill="#2F2725"/>
<path d="M927.844 309.206H922.157V264.68H927.844V309.206Z" fill="#2F2725"/>
<path d="M879.056 309.932C870.345 309.932 864.355 303.641 864.355 294.445C864.355 285.189 870.223 278.776 878.814 278.776C887.224 278.776 892.729 284.584 892.729 293.356V295.473L869.861 295.534C870.284 301.765 873.551 305.214 879.177 305.214C883.594 305.214 886.498 303.399 887.466 300.011H892.789C891.337 306.363 886.377 309.932 879.056 309.932ZM878.814 283.555C873.853 283.555 870.707 286.52 869.982 291.722H887.042C887.042 286.822 883.836 283.555 878.814 283.555Z" fill="#2F2725"/>
<path d="M838.667 309.932C830.076 309.932 824.874 303.52 824.874 294.505C824.874 285.431 830.137 278.776 838.909 278.776C843.447 278.776 847.258 280.772 849.254 284.402V264.68H854.881V309.206H849.799L849.315 303.822C847.379 307.875 843.386 309.932 838.667 309.932ZM839.817 304.79C845.624 304.79 849.194 300.495 849.194 294.324C849.194 288.274 845.624 283.918 839.817 283.918C834.009 283.918 830.621 288.274 830.621 294.324C830.621 300.434 834.009 304.79 839.817 304.79Z" fill="#2F2725"/>
<path d="M766.765 294.384C766.765 285.249 773.299 278.836 782.192 278.836C791.025 278.836 797.559 285.249 797.559 294.384C797.559 303.52 791.025 309.932 782.192 309.932C773.299 309.932 766.765 303.52 766.765 294.384ZM772.513 294.384C772.513 300.555 776.445 304.851 782.192 304.851C787.879 304.851 791.872 300.555 791.872 294.384C791.872 288.214 787.879 283.918 782.192 283.918C776.445 283.918 772.513 288.214 772.513 294.384Z" fill="#2F2725"/>
<path d="M754.335 272.605C752.278 272.605 750.584 270.911 750.584 268.854C750.584 266.737 752.278 265.103 754.335 265.103C756.392 265.103 758.086 266.737 758.086 268.854C758.086 270.911 756.392 272.605 754.335 272.605ZM751.552 309.206V279.623H757.239V309.206H751.552Z" fill="#2F2725"/>
<path d="M714.093 294.445C714.093 285.189 719.961 278.776 728.612 278.776C736.054 278.776 741.256 283.011 742.285 289.605H736.598C735.63 285.854 732.605 283.858 728.794 283.858C723.409 283.858 719.719 287.972 719.719 294.384C719.719 300.737 723.167 304.851 728.552 304.851C732.605 304.851 735.63 302.733 736.659 299.224H742.345C741.196 305.637 735.691 309.932 728.552 309.932C719.84 309.932 714.093 303.762 714.093 294.445Z" fill="#2F2725"/>
<path d="M701.662 272.605C699.605 272.605 697.911 270.911 697.911 268.854C697.911 266.737 699.605 265.103 701.662 265.103C703.719 265.103 705.413 266.737 705.413 268.854C705.413 270.911 703.719 272.605 701.662 272.605ZM698.879 309.206V279.623H704.566V309.206H698.879Z" fill="#2F2725"/>
<path d="M673.18 309.206L661.262 279.623H667.312L673.785 296.139C674.814 298.922 675.661 301.402 676.145 303.217C676.629 301.281 677.597 298.74 678.625 296.139L685.219 279.623H691.148L678.807 309.206H673.18Z" fill="#2F2725"/>
<path d="M655.466 279.381V284.584H652.925C647.54 284.584 644.213 287.851 644.213 293.537V309.206H638.526V279.683H643.85L644.213 284.16C645.423 281.075 648.387 279.018 652.441 279.018C653.469 279.018 654.316 279.139 655.466 279.381Z" fill="#2F2725"/>
<path d="M615.295 309.932C606.583 309.932 600.594 303.641 600.594 294.445C600.594 285.189 606.462 278.776 615.053 278.776C623.463 278.776 628.968 284.584 628.968 293.356V295.473L606.099 295.534C606.523 301.765 609.79 305.214 615.416 305.214C619.833 305.214 622.737 303.399 623.705 300.011H629.028C627.576 306.363 622.616 309.932 615.295 309.932ZM615.053 283.555C610.092 283.555 606.946 286.52 606.221 291.722H623.281C623.281 286.822 620.075 283.555 615.053 283.555Z" fill="#2F2725"/>
<path d="M569.786 300.616H575.231C575.231 303.641 577.53 305.456 581.281 305.456C585.273 305.456 587.572 303.822 587.572 301.1C587.572 299.103 586.604 297.893 583.519 297.107L578.316 295.897C573.053 294.626 570.572 292.025 570.572 287.669C570.572 282.224 575.17 278.776 581.704 278.776C588.177 278.776 592.412 282.406 592.533 288.032H587.088C586.967 285.068 584.971 283.192 581.523 283.192C577.953 283.192 575.957 284.765 575.957 287.488C575.957 289.484 577.409 290.815 580.313 291.541L585.515 292.811C590.537 294.021 593.017 296.32 593.017 300.737C593.017 306.363 588.177 309.932 581.16 309.932C574.202 309.932 569.786 306.242 569.786 300.616Z" fill="#2F2725"/>
<path d="M540.879 309.206H535.192V264.68H540.879V309.206Z" fill="#2F2725"/>
<path d="M508.199 309.932C501.847 309.932 498.096 306.363 498.096 300.979C498.096 295.534 502.149 292.146 509.107 291.601L518.423 290.875V290.028C518.423 285.068 515.459 283.313 511.466 283.313C506.687 283.313 503.964 285.431 503.964 289H499.003C499.003 282.829 504.085 278.776 511.708 278.776C519.028 278.776 523.989 282.648 523.989 290.633V309.206H519.149L518.544 304.427C517.032 307.815 512.978 309.932 508.199 309.932ZM509.833 305.516C515.217 305.516 518.484 302.007 518.484 296.441V294.868L510.922 295.473C505.9 295.957 503.843 297.893 503.843 300.797C503.843 303.943 506.142 305.516 509.833 305.516Z" fill="#2F2725"/>
<path d="M439.319 309.206H433.148L449.12 265.466H455.714L471.746 309.206H465.515L461.582 298.317H443.191L439.319 309.206ZM451.661 274.904L445.006 293.174H459.828L453.113 274.904C452.81 274.057 452.508 273.028 452.387 272.363C452.266 272.968 451.963 273.996 451.661 274.904Z" fill="#2F2725"/>
<path d="M424.098 265.466V309.206H418.169V265.466H424.098Z" fill="#2F2725"/>
<path d="M370.58 309.932C364.227 309.932 360.477 306.363 360.477 300.979C360.477 295.534 364.53 292.146 371.487 291.601L380.804 290.875V290.028C380.804 285.068 377.84 283.313 373.847 283.313C369.067 283.313 366.345 285.431 366.345 289H361.384C361.384 282.829 366.466 278.776 374.089 278.776C381.409 278.776 386.37 282.648 386.37 290.633V309.206H381.53L380.925 304.427C379.412 307.815 375.359 309.932 370.58 309.932ZM372.213 305.516C377.598 305.516 380.864 302.007 380.864 296.441V294.868L373.302 295.473C368.281 295.957 366.224 297.893 366.224 300.797C366.224 303.943 368.523 305.516 372.213 305.516Z" fill="#2F2725"/>
<path d="M334.011 265.466V303.701H353.249V309.206H328.082V265.466H334.011Z" fill="#2F2725"/>
<defs>
<linearGradient id="paint0_linear_131_3" x1="317.942" y1="1.32443e-05" x2="15.0155" y2="325.321" gradientUnits="userSpaceOnUse">
<stop stop-color="#E4512F"/>
<stop offset="1" stop-color="#D64A3A"/>
</linearGradient>
</defs>
</svg>
